<svg xmlns="http://www.w3.org/2000/svg" xmlns:xlink="http://www.w3.org/1999/xlink" version="1.1" id="Layer_1" x="0px" y="0px" width="100px" height="100px" viewBox="0 0 100 100" enable-background="new 0 0 100 100" xml:space="preserve">
<path d="M99,15.269C99,11.807,96.193,9,92.731,9H7.269C3.807,9,1,11.807,1,15.269v51.463C1,70.193,3.807,73,7.269,73h85.463  C96.193,73,99,70.193,99,66.731V15.269z M94,57.728C94,58.982,92.982,60,91.727,60H8.273C7.018,60,6,58.982,6,57.728V16.272  C6,15.018,7.018,14,8.273,14h83.453C92.982,14,94,15.018,94,16.272V57.728z M52.85,66.508c0,1.508-1.222,2.73-2.729,2.73  c-1.508,0-2.73-1.223-2.73-2.73s1.222-2.729,2.73-2.729C51.628,63.778,52.85,65,52.85,66.508z"/>
<path d="M63.4,89.811c-0.859-0.611-1.596-1.147-2.225-2.405C60.546,86.147,59.736,75,59.736,75h-9.062h-0.268h-0.018h-0.268h-9.063  c0,0-0.809,11.147-1.438,12.405c-0.628,1.258-1.366,1.749-2.224,2.36c-0.49,0.348-0.17,0.895,0,1.354  C37.533,91.492,43.594,92,50.389,92c0.003,0,0.006,0,0.009,0s0.006,0,0.009,0c6.795,0,12.855-0.485,12.994-0.858  C63.568,90.681,63.889,90.158,63.4,89.811z"/>
</svg>